<?xml version="1.0" encoding="UTF-8"?>
<svg id="Capa_2" data-name="Capa 2" xmlns="http://www.w3.org/2000/svg" viewBox="0 0 113.77 20.23">
  <g id="Components">
    <g id="_0f8bcb32-0bac-4400-9376-c599d0f32d88_1" data-name="0f8bcb32-0bac-4400-9376-c599d0f32d88@1">
      <g>
        <path d="M46.63,11.53c.6-2.93,2.33-6.09,3.7-7.26.24-.18.46-.24.78-.04.5.32,1.21.56,1.67,1.11.34.4.38,1,.36,1.53-.12,2.27-1.71,3.66-4.14,5-.42,1.31-.86,3.36.26,3.36.58,0,1.65-.64,2.51-1.49.26-.26.4.56-.06,1.17-.64.92-1.53,1.17-2.33,1.19-1.57.04-3.4-1.37-2.75-4.58ZM51.71,6.54c-.6.4-1.69,2.29-2.25,4.22.94-.76,2.25-2.73,2.25-4.22Z" style="fill: #6ca5bc; stroke-width: 0px;"/>
        <path d="M55.99,13.78c-.66.82-1.63,1.87-2.59,1.87-.82,0-1.65-.8-1.65-1.79,0-1.79,1.87-4.88,3.42-4.88.54,0,1.37.8,1.83,1.17.22-.38.4-.76.54-1.23.06-.22.26-.3.54-.12.44.28.8.58,1.13.96.14.16.16.28-.04.76-.3.7-1.25,2.57-1.25,3.7,0,.28.12.6.4.6.52,0,1.45-.94,2.21-1.59.08-.08.16.1.16.28v.06c0,.72-.92,2.15-2.05,2.15-1.02,0-2.41-.58-2.65-1.93ZM55.25,12.89c.64-.7,1.23-1.63,1.29-2.09-.48.1-1.37.82-1.95,1.55-.68.9-1.01,1.83-.9,1.89.06.04.84-.54,1.55-1.35Z" style="fill: #6ca5bc; stroke-width: 0px;"/>
        <path d="M65.18,13.54c0-.5.04-.84.12-1.37-1.45,1.71-2.53,2.97-2.91,3.26-.44.34-.52.36-.66.36-.48,0-1.61-.92-1.61-1.85,0-.78.96-3.22,1.59-4.96.14-.38,0-.66.4-.66.28,0,1.67.74,1.43,1.71-.24.92-.58,1.83-1,3.18,1.05-1.19,1.89-2.21,2.85-2.97.18-.14.38-.22.58-.22.82,0,1.81,1.13,1.81,1.67,0,.9-.82,2.37-.82,3.05,0,.16.02.4.3.4.34,0,1.41-.6,2.05-1.09.36-.26-.04,1-.5,1.43-.4.38-.9.6-1.55.6-1.11,0-2.09-1.05-2.09-2.55Z" style="fill: #6ca5bc; stroke-width: 0px;"/>
        <path d="M69.8,19.22c.14.1.32.18.52.18,1.43,0,3.09-4.26,3.58-5.69-1.17,1.33-2.41,2.13-2.79,2.13-.34,0-.46-.02-.72-.22-.66-.52-1.21-.86-1.21-1.73,0-.08,0-.18.02-.3.2-1.73,2.07-4.5,3.82-4.5.64,0,1.61.78,1.83,1.33.12-.56.32-1.31.72-1.17.88.3,1.17.72,1.17,1.09,0,3.34-2.41,9.89-5.75,9.89-1.41,0-1.61-1.31-1.19-1.01ZM74.52,11.04c-1.35.24-1.85,1.11-2.47,2.09-.72,1.13-.62,1.53.04.92.7-.66,1.43-1.63,2.43-3.01Z" style="fill: #6ca5bc; stroke-width: 0px;"/>
        <path d="M78.6,15.69c-.68-.36-1.05-.84-1.13-1.53-.14-1.39,1.39-4.46,1.73-5.43.22-.64,2.15.56,1.87,1.15-.74,1.59-1.73,4.18-1.47,4.38.24.2,2.01-2.13,2.87-3.38.52-.76.7-.94.98-1.43.2-.38,1.59.26,1.59.6,0,.04,0,.1-.02.18-.62,2.09-.62,2.83-.62,3.5,0,.48.14.66.42.66.34,0,.92-.32,1.65-.74.38-.22.24.12.16.26-.3.6-1,1.07-1.25,1.25-.24.16-.46.24-.66.24-.38,0-.68-.24-1.01-.44-.76-.42-1.05-1.25-1.21-2.07-1.81,2.45-2.49,3.05-3.22,3.05-.24,0-.42-.12-.66-.24Z" style="fill: #6ca5bc; stroke-width: 0px;"/>
        <path d="M90.52,13.78c-.66.82-1.63,1.87-2.59,1.87-.82,0-1.65-.8-1.65-1.79,0-1.79,1.87-4.88,3.42-4.88.54,0,1.37.8,1.83,1.17.22-.38.4-.76.54-1.23.06-.22.26-.3.54-.12.44.28.8.58,1.13.96.14.16.16.28-.04.76-.3.7-1.25,2.57-1.25,3.7,0,.28.12.6.4.6.52,0,1.45-.94,2.21-1.59.08-.08.16.1.16.28v.06c0,.72-.92,2.15-2.05,2.15-1.02,0-2.41-.58-2.65-1.93ZM89.78,12.89c.64-.7,1.23-1.63,1.29-2.09-.48.1-1.37.82-1.95,1.55-.68.9-1.01,1.83-.9,1.89.06.04.84-.54,1.55-1.35Z" style="fill: #6ca5bc; stroke-width: 0px;"/>
        <path d="M95.38,19.22c.14.1.32.18.52.18,1.43,0,3.09-4.26,3.58-5.69-1.17,1.33-2.41,2.13-2.79,2.13-.34,0-.46-.02-.72-.22-.66-.52-1.21-.86-1.21-1.73,0-.08,0-.18.02-.3.2-1.73,2.07-4.5,3.82-4.5.64,0,1.61.78,1.83,1.33.12-.56.32-1.31.72-1.17.88.3,1.17.72,1.17,1.09,0,3.34-2.41,9.89-5.75,9.89-1.41,0-1.61-1.31-1.19-1.01ZM100.09,11.04c-1.35.24-1.85,1.11-2.47,2.09-.72,1.13-.62,1.53.04.92.7-.66,1.43-1.63,2.43-3.01Z" style="fill: #6ca5bc; stroke-width: 0px;"/>
        <path d="M103.02,13.37c0-1.89,1.07-3.5,2.17-4.2.46-.28.76-.38,1-.38.36,0,.62.24,1.21.52.76.46.9.88.9,1.41,0,.24-.04.52-.04.84-.16,1.49-1.13,1.89-1.95,1.89-.48,0-.92-.14-1.09-.28-.1.3-.14.56-.14.8,0,.78.56,1.07,1.37,1.07.72,0,1.39-.48,1.95-.9.12-.08.12.08.12.16,0,.88-.82,1.87-2.31,1.87-1.21,0-3.18-1.13-3.18-2.81ZM106.12,12.39c.48-.46.8-1,.88-1.65-.52.2-.9.72-1.21,1.17-.32.52-.42.72-.28.72.1,0,.3-.08.62-.24Z" style="fill: #6ca5bc; stroke-width: 0px;"/>
        <path d="M110.24,12.17c-.48-.3-.92-.68-.92-1.25,0-1.17,1.63-2.27,2.67-2.27.82,0,1.77.78,1.77,1.13,0,.18-.2.18-.46.26-.6.18-1.61.64-1.61,1.03,0,.12.08.24.2.36.2-.08.38-.14.56-.18.9-.22,1.73-.1,1.07.24-.24.12-.54.3-.88.54.48.36.96.8.96,1.37,0,1.47-1.67,3.26-3.84,3.26-1,0-1.75-1.07-1.75-1.87,0-1.02,1.05-1.95,2.23-2.63ZM111.4,12.93c-.84.68-1.65,1.43-1.97,2.03.86,0,2.21-.96,2.21-1.55,0-.18-.08-.34-.24-.48Z" style="fill: #6ca5bc; stroke-width: 0px;"/>
      </g>
      <g>
        <g>
          <path d="M5.04,15.66c-.52.26-1,.34-1.53.34-1.97,0-3.51-1.6-3.51-3.55s1.54-3.56,3.51-3.56c.53,0,1,.09,1.53.34v2.17c-.29-.41-.81-.72-1.42-.72-.94,0-1.72.8-1.72,1.77s.75,1.77,1.66,1.77c.6,0,1.19-.35,1.48-.77v2.22Z" style="fill: #000; stroke-width: 0px;"/>
          <path d="M9.21,8.9c2.06,0,3.56,1.6,3.56,3.56s-1.5,3.56-3.56,3.56-3.56-1.6-3.56-3.56,1.5-3.56,3.56-3.56ZM9.21,14.22c1.01,0,1.66-.79,1.66-1.77s-.65-1.77-1.66-1.77-1.66.79-1.66,1.77.65,1.77,1.66,1.77Z" style="fill: #000; stroke-width: 0px;"/>
          <path d="M13.51,9.01h1.51l2.35,2.4v-2.4h1.77v7.11l-3.86-4.11v3.86h-1.77v-6.86Z" style="fill: #000; stroke-width: 0px;"/>
          <path d="M23.46,8.9c2.06,0,3.56,1.6,3.56,3.56,0,1.68-1.09,3.09-2.69,3.46v.8h-1.7v-.79c-1.63-.36-2.74-1.77-2.74-3.47,0-1.96,1.5-3.56,3.56-3.56ZM22.63,14.02v-.86h1.7v.83c.49-.31.78-.88.78-1.53,0-.97-.65-1.77-1.66-1.77s-1.66.79-1.66,1.77c0,.68.3,1.26.83,1.56Z" style="fill: #000; stroke-width: 0px;"/>
          <path d="M29.58,9.01v4.52c0,.38.32.7.71.7.41,0,.72-.31.72-.7v-4.52h1.82v4.53c0,1.39-1.13,2.47-2.55,2.47s-2.51-1.08-2.51-2.47v-4.53h1.81Z" style="fill: #000; stroke-width: 0px;"/>
          <path d="M33.91,9.01h4.45v1.76h-2.62v.85h2.49v1.61h-2.49v.89h2.66v1.76h-4.49v-6.86Z" style="fill: #000; stroke-width: 0px;"/>
          <path d="M43.78,13.39c.68.37.94,1.01.94,1.75v.75h-1.83v-.59c0-.66-.47-1.15-1.17-1.15h-.48v1.74h-1.82v-6.86h2.74c1.4,0,2.57,1.14,2.57,2.53,0,.86-.37,1.48-.94,1.84ZM41.9,10.72h-.66v1.77h.66c.58,0,.95-.36.95-.88s-.37-.89-.95-.89Z" style="fill: #000; stroke-width: 0px;"/>
        </g>
        <path d="M12.11,9.38c.58,0,.95-.45.95-1.01s-.37-1.01-.95-1.01-.95.45-.95,1.01.37,1.01.95,1.01Z" style="fill: #000; stroke-width: 0px;"/>
      </g>
      <g>
        <path d="M99.15,5.29s-.08-.01-.12-.03l-2.38-1.37c-.07-.04-.12-.12-.12-.2s.04-.16.12-.2L102.64.03c.07-.04.16-.04.23,0l2.57,1.48c.11.06.15.21.09.32-.06.11-.21.15-.32.09l-2.46-1.41-5.52,3.19,1.86,1.07c.76-.81,2.14-1.31,3.67-1.31s2.91.5,3.66,1.31l1.86-1.07-1.79-1.03c-.11-.06-.15-.21-.09-.32.06-.11.21-.15.32-.09l2.14,1.24c.07.04.12.12.12.2,0,.08-.04.16-.12.2l-2.38,1.37c-.1.06-.23.03-.3-.06-.63-.78-1.97-1.28-3.43-1.28s-2.81.51-3.43,1.29c-.05.06-.11.09-.18.09Z" style="fill: #6ca5bc; stroke-width: 0px;"/>
        <path d="M102.77,7.88h0c-.12,0-.21-.08-.23-.2-.1-.68-1.01-1.21-2.07-1.21-.58,0-.83.1-1.2.34-.07.05-.16.05-.24,0-.07-.04-.12-.12-.12-.21l.02-1.56c0-.05.02-.1.05-.14.72-.9,2.17-1.46,3.78-1.46h.01c1.61,0,3.06.56,3.78,1.46.03.04.05.09.05.14l.02,1.56c0,.09-.04.17-.12.21-.07.04-.17.04-.24,0-.37-.24-.62-.34-1.2-.34-1.06,0-1.97.53-2.07,1.21-.02.11-.11.2-.23.2ZM100.47,6.01c1.01,0,1.89.41,2.3,1.02.41-.61,1.29-1.02,2.3-1.02.49,0,.8.07,1.09.21l-.02-1.08c-.64-.75-1.96-1.22-3.38-1.22-1.42,0-2.73.48-3.37,1.22l-.02,1.08c.29-.14.6-.21,1.09-.21Z" style="fill: #6ca5bc; stroke-width: 0px;"/>
        <path d="M105.97,3.05c-.53,0-.93-.42-.93-.97s.4-.97.93-.97.93.42.93.97-.4.97-.93.97ZM105.97,1.58c-.32,0-.46.26-.46.51s.14.51.46.51.46-.26.46-.51-.14-.51-.46-.51Z" style="fill: #6ca5bc; stroke-width: 0px;"/>
      </g>
    </g>
  </g>
</svg>