<?xml version="1.0" encoding="UTF-8"?><svg id="Capa_2" xmlns="http://www.w3.org/2000/svg" viewBox="0 0 446.4996 166.8803"><g id="Components"><g id="_8a60b100-d9a2-497b-937b-452ddc5da1d7_1"><path d="M25.6283,116.0156c3.4907-17.1109,13.618-35.6167,21.6495-42.4839,1.3972-1.0479,2.6779-1.3972,4.5386-.2329,2.9107,1.8629,7.1001,3.2579,9.7779,6.5179,1.9793,2.3286,2.2122,5.8193,2.0957,8.9629-.6986,13.2687-10.0108,21.4166-24.2109,29.2153-2.445,7.6822-5.0043,19.6702,1.5136,19.6702,3.3743,0,9.6615-3.7236,14.6658-8.7301,1.5136-1.5114,2.3286,3.26-.3493,6.8672-3.7258,5.3558-8.9629,6.8672-13.618,6.9836-9.1958.2329-19.9052-8.0293-16.063-26.7702ZM55.3092,86.8004c-3.4929,2.3286-9.8944,13.3851-13.1523,24.6766,5.47-4.4243,13.1523-15.9466,13.1523-24.6766Z" style="fill:#6ca5bc; stroke-width:0px;"/><path d="M80.3352,129.1679c-3.8422,4.7736-9.5451,10.9422-15.1316,10.9422-4.7736,0-9.6615-4.6572-9.6615-10.4765,0-10.4744,10.9422-28.5167,20.0195-28.5167,3.1436,0,8.0315,4.655,10.7094,6.8672,1.2807-2.2122,2.3286-4.4222,3.1436-7.2165.3471-1.2807,1.5114-1.7464,3.1414-.6986,2.5615,1.63,4.655,3.3765,6.6343,5.5865.815.9314.9314,1.63-.2329,4.4243-1.7464,4.0729-7.3329,15.0151-7.3329,21.6495,0,1.63.6986,3.4929,2.3286,3.4929,3.025,0,8.4972-5.4722,12.9194-9.3122.4657-.4657.9314.5821.9314,1.63v.3471c0,4.1915-5.3536,12.5723-11.988,12.5723-5.9379,0-14.0837-3.3765-15.4809-11.2915ZM76.0273,123.9307c3.7258-4.0729,7.2165-9.5451,7.5658-12.2208-2.7922.5821-8.0315,4.7715-11.4058,9.0772-3.9586,5.2393-5.9358,10.7094-5.2372,11.0587.3471.2329,4.8879-3.1436,9.0772-7.9151Z" style="fill:#6ca5bc; stroke-width:0px;"/><path d="M134.1085,127.7707c0-2.9086.2329-4.8879.6986-8.0293-8.4972,10.0087-14.7823,17.3416-16.9944,19.088-2.5593,1.9793-3.025,2.0957-3.84,2.0957-2.7943,0-9.4287-5.3558-9.4287-10.8258,0-4.5386,5.5865-18.8552,9.3122-28.9824.815-2.2122,0-3.84,2.3286-3.84,1.6279,0,9.7758,4.3057,8.3786,10.0087-1.395,5.3558-3.3743,10.7094-5.8193,18.6245,6.1686-6.9836,11.0587-12.9216,16.6451-17.3437,1.0479-.815,2.2122-1.2807,3.3765-1.2807,4.7715,0,10.5908,6.6343,10.5908,9.7779,0,5.2372-4.7715,13.8508-4.7715,17.8094,0,.9293.1164,2.3264,1.7464,2.3264,1.9772,0,8.2622-3.4907,11.988-6.4015,2.0957-1.5136-.2329,5.8193-2.9107,8.3808-2.3264,2.2122-5.2372,3.4907-9.0772,3.4907-6.5201,0-12.223-6.1686-12.223-14.8987Z" style="fill:#6ca5bc; stroke-width:0px;"/><path d="M161.1137,160.9446c.815.5821,1.8607,1.0479,3.025,1.0479,8.3808,0,18.0423-24.9095,20.9509-33.2903-6.8672,7.7986-14.0837,12.4558-16.2937,12.4558-1.9793,0-2.6779-.1164-4.1915-1.2807-3.84-3.0272-7.1001-5.0043-7.1001-10.1272,0-.4657,0-1.0479.1164-1.7464,1.1643-10.1251,12.1044-26.3045,22.3481-26.3045,3.7258,0,9.4287,4.5386,10.7094,7.7986.6986-3.26,1.8607-7.6822,4.1893-6.8672,5.1208,1.7464,6.8672,4.1893,6.8672,6.4015,0,19.5537-14.0837,57.8484-33.6374,57.8484-8.2644,0-9.4287-7.6822-6.9836-5.9358ZM188.699,113.1049c-7.9151,1.3972-10.8258,6.5201-14.433,12.223-4.1915,6.6343-3.6093,8.9629.2329,5.3536,4.0729-3.84,8.3808-9.5451,14.2001-17.5766Z" style="fill:#6ca5bc; stroke-width:0px;"/><path d="M212.5584,140.343c-3.9565-2.0957-6.1686-4.8901-6.6343-8.9629-.815-8.1479,8.1479-26.0716,10.1272-31.7767,1.2786-3.7236,12.5701,3.26,10.9401,6.7508-4.3057,9.3122-10.1251,24.4438-8.6136,25.6081,1.3972,1.1643,11.7573-12.4537,16.7616-19.7866,3.0272-4.4243,4.075-5.4722,5.7029-8.3808,1.1643-2.2122,9.3122,1.5136,9.3122,3.4907,0,.2329,0,.5821-.1164,1.0479-3.6072,12.2208-3.6072,16.5287-3.6072,20.4852,0,2.7943.8129,3.8422,2.4429,3.8422,1.9793,0,5.3558-1.8629,9.6615-4.3079,2.2122-1.2786,1.3972.6986.9314,1.5136-1.7464,3.4929-5.8193,6.2851-7.3329,7.3329-1.3972.9314-2.6779,1.3972-3.8422,1.3972-2.21,0-3.9565-1.3972-5.9358-2.5615-4.4222-2.4429-6.1686-7.3329-7.1001-12.1044-10.593,14.3166-14.5494,17.8094-18.8552,17.8094-1.3972,0-2.445-.6986-3.8422-1.3972Z" style="fill:#6ca5bc; stroke-width:0px;"/><path d="M282.2826,129.1679c-3.8422,4.7736-9.5451,10.9422-15.1316,10.9422-4.7736,0-9.6615-4.6572-9.6615-10.4765,0-10.4744,10.9422-28.5167,20.0195-28.5167,3.1436,0,8.0315,4.655,10.7094,6.8672,1.2807-2.2122,2.3286-4.4222,3.1414-7.2165.3493-1.2807,1.5136-1.7464,3.1436-.6986,2.5615,1.63,4.655,3.3765,6.6343,5.5865.815.9314.9314,1.63-.2329,4.4243-1.7464,4.0729-7.3329,15.0151-7.3329,21.6495,0,1.63.6986,3.4929,2.3286,3.4929,3.025,0,8.4972-5.4722,12.9194-9.3122.4657-.4657.9314.5821.9314,1.63v.3471c0,4.1915-5.3536,12.5723-11.988,12.5723-5.9379,0-14.0837-3.3765-15.4809-11.2915ZM277.9747,123.9307c3.7258-4.0729,7.2165-9.5451,7.5658-12.2208-2.7922.5821-8.0315,4.7715-11.4058,9.0772-3.9586,5.2393-5.9358,10.7094-5.2372,11.0587.3471.2329,4.8879-3.1436,9.0772-7.9151Z" style="fill:#6ca5bc; stroke-width:0px;"/><path d="M310.6829,160.9446c.815.5821,1.8607,1.0479,3.025,1.0479,8.3808,0,18.0423-24.9095,20.9509-33.2903-6.8672,7.7986-14.0837,12.4558-16.2937,12.4558-1.9793,0-2.6779-.1164-4.1915-1.2807-3.84-3.0272-7.1001-5.0043-7.1001-10.1272,0-.4657,0-1.0479.1164-1.7464,1.1643-10.1251,12.1044-26.3045,22.3481-26.3045,3.7258,0,9.4287,4.5386,10.7094,7.7986.6986-3.26,1.8607-7.6822,4.1893-6.8672,5.1208,1.7464,6.8672,4.1893,6.8672,6.4015,0,19.5537-14.0837,57.8484-33.6374,57.8484-8.2644,0-9.4287-7.6822-6.9836-5.9358ZM338.2681,113.1049c-7.9151,1.3972-10.8258,6.5201-14.433,12.223-4.1915,6.6343-3.6093,8.9629.2329,5.3536,4.0729-3.84,8.3808-9.5451,14.2001-17.5766Z" style="fill:#6ca5bc; stroke-width:0px;"/><path d="M355.3768,126.725c0-11.0587,6.2851-20.4873,12.6865-24.5602,2.6779-1.63,4.4243-2.2122,5.8215-2.2122,2.0936,0,3.6072,1.3972,7.1001,3.0272,4.4222,2.6757,5.2372,5.1208,5.2372,8.2644,0,1.3972-.2329,3.025-.2329,4.8879-.9314,8.7301-6.6343,11.0587-11.408,11.0587-2.7922,0-5.3536-.815-6.4015-1.63-.5821,1.7464-.815,3.2579-.815,4.655,0,4.5408,3.26,6.2851,8.0315,6.2851,4.1915,0,8.1479-2.7922,11.408-5.2372.6986-.4657.6986.4657.6986.9314,0,5.1208-4.7736,10.9401-13.5015,10.9401-7.1022,0-18.6245-6.6343-18.6245-16.4101ZM373.5356,121.0199c2.7922-2.6757,4.655-5.8193,5.1208-9.6594-3.0272,1.1643-5.2372,4.1893-7.1001,6.8672-1.8629,3.025-2.445,4.1893-1.63,4.1893.5821,0,1.7464-.4657,3.6093-1.3972Z" style="fill:#6ca5bc; stroke-width:0px;"/><path d="M397.6279,119.7414c-2.7943-1.7464-5.3536-3.9586-5.3536-7.3329,0-6.8694,9.5429-13.2708,15.5973-13.2708,4.7715,0,10.3579,4.5408,10.3579,6.6343,0,1.0479-1.1643,1.0479-2.6757,1.5136-3.4929,1.0479-9.4287,3.7258-9.4287,6.0522,0,.6986.4657,1.3972,1.1643,2.0957,1.1643-.4657,2.21-.815,3.2579-1.0479,5.2393-1.2807,10.1272-.5821,6.2851,1.3972-1.395.6986-3.1414,1.7464-5.1208,3.1436,2.7943,2.0936,5.5865,4.655,5.5865,8.0315,0,8.6115-9.7758,19.088-22.4645,19.088-5.8193,0-10.2415-6.2851-10.2415-10.9401,0-5.9379,6.1686-11.408,13.0358-15.3644ZM404.3787,124.1636c-4.8879,3.9565-9.6615,8.3808-11.5222,11.8715,5.0043,0,12.9194-5.5865,12.9194-9.0772,0-1.0479-.4657-1.9793-1.3972-2.7943Z" style="fill:#6ca5bc; stroke-width:0px;"/><path d="M151.4213,83.4557c-2.1619,1.0605-4.1596,1.4277-6.3613,1.4277-8.1959,0-14.5971-6.6469-14.5971-14.7612,0-8.1551,6.4012-14.801,14.5971-14.801,2.2017,0,4.1587.3671,6.3613,1.4267v9.0117c-1.2237-1.7122-3.3846-2.9767-5.9126-2.9767-3.9149,0-7.1354,3.3438-7.1354,7.3393,0,4.0373,3.0981,7.3393,6.8906,7.3393,2.4872,0,4.9337-1.4675,6.1574-3.2205v9.2147Z" style="fill:#000; stroke-width:0px;"/><path d="M168.7493,55.3211c8.563,0,14.801,6.6459,14.801,14.801s-6.238,14.802-14.801,14.802-14.801-6.6469-14.801-14.802,6.238-14.801,14.801-14.801ZM168.7493,77.4614c4.1995,0,6.8906-3.3021,6.8906-7.3393s-2.6912-7.3393-6.8906-7.3393-6.8906,3.303-6.8906,7.3393,2.6912,7.3393,6.8906,7.3393Z" style="fill:#000; stroke-width:0px;"/><path d="M186.6485,55.8106h6.2798l9.7858,9.9897v-9.9897h7.3801v29.5613l-16.0655-17.0843v16.0655h-7.3801v-28.5425Z" style="fill:#000; stroke-width:0px;"/><path d="M227.9943,55.3211c8.563,0,14.801,6.6459,14.801,14.801,0,6.9732-4.5258,12.8441-11.1717,14.3941v3.3221h-7.0548v-3.2814c-6.7683-1.5092-11.3756-7.3801-11.3756-14.4349,0-8.1551,6.238-14.801,14.801-14.801ZM224.5688,76.6058v-3.5886h7.0548v3.4662c2.0385-1.3053,3.2613-3.6702,3.2613-6.3613,0-4.0363-2.6912-7.3393-6.8906-7.3393s-6.8906,3.303-6.8906,7.3393c0,2.8136,1.2635,5.26,3.4652,6.4837Z" style="fill:#000; stroke-width:0px;"/><path d="M253.4784,55.8106v18.7965c0,1.5908,1.3461,2.8951,2.9359,2.8951,1.7122,0,2.9767-1.3043,2.9767-2.8951v-18.7965h7.5841v18.8373c0,5.7903-4.6889,10.2762-10.6016,10.2762-5.8719,0-10.4384-4.486-10.4384-10.2762v-18.8373h7.5433Z" style="fill:#000; stroke-width:0px;"/><path d="M271.4601,55.8106h18.512v7.2985h-10.8871v3.5478h10.3568v6.6867h-10.3568v3.7109h11.0503v7.2985h-18.6751v-28.5425Z" style="fill:#000; stroke-width:0px;"/><path d="M312.5204,73.9962c2.8136,1.5491,3.9149,4.1995,3.9149,7.2577v3.0991h-7.6249v-2.4464c0-2.732-1.9579-4.7705-4.8531-4.7705h-1.9978v7.217h-7.5841v-28.5425h11.3766c5.8311,0,10.6832,4.7297,10.6832,10.52,0,3.5876-1.55,6.1564-3.9149,7.6657ZM304.6916,62.9051h-2.732v7.3801h2.732c2.4057,0,3.9557-1.5083,3.9557-3.6692,0-2.1211-1.55-3.7109-3.9557-3.7109Z" style="fill:#000; stroke-width:0px;"/><path d="M180.8257,57.3463c2.3969,0,3.9329-1.8852,3.9329-4.189s-1.536-4.189-3.9329-4.189-3.9329,1.8847-3.9329,4.189,1.536,4.189,3.9329,4.189Z" style="fill:#000; stroke-width:0px;"/><path d="M145.0564,159.2003H34.5796c-19.0665,0-34.5796-15.5132-34.5796-34.5796v-28.715c0-19.0686,15.5132-34.5818,34.5796-34.5818h82.29c1.2204,0,2.2079.9875,2.2079,2.2079s-.9875,2.2079-2.2079,2.2079H34.5796c-16.6322,0-30.1639,13.5317-30.1639,30.1661v28.715c0,16.6322,13.5317,30.1639,30.1639,30.1639h110.4768c1.2204,0,2.2079.9875,2.2079,2.2079s-.9875,2.2079-2.2079,2.2079Z" style="fill:#6ca5bc; stroke-width:0px;"/><path d="M297.7778,159.2003h-97.3827c-1.2204,0-2.2079-.9875-2.2079-2.2079s.9875-2.2079,2.2079-2.2079h97.3827c1.2204,0,2.2079.9875,2.2079,2.2079s-.9875,2.2079-2.2079,2.2079Z" style="fill:#6ca5bc; stroke-width:0px;"/><path d="M411.9178,159.2003h-61.4685c-1.2204,0-2.2079-.9875-2.2079-2.2079s.9875-2.2079,2.2079-2.2079h61.4685c16.6344,0,30.1661-13.5317,30.1661-30.1639v-28.715c0-16.6344-13.5317-30.1661-30.1661-30.1661h-80.5608c-1.2204,0-2.2079-.9875-2.2079-2.2079s.9875-2.2079,2.2079-2.2079h80.5608c19.0686,0,34.5818,15.5132,34.5818,34.5818v28.715c0,19.0665-15.5132,34.5796-34.5818,34.5796Z" style="fill:#6ca5bc; stroke-width:0px;"/><path d="M202.1052,30.9223c-.231,0-.4646-.0593-.6771-.1814l-13.903-8.0025c-.4213-.2425-.6815-.6912-.6815-1.1771s.2584-.9346.6797-1.178L222.4973.1823c.4195-.2425.9381-.2434,1.3576-.0009l15.0456,8.6627c.6514.3744.8744,1.2054.5,1.8559-.3744.6514-1.2072.8735-1.8559.5l-14.3668-8.2716-32.2534,18.63,10.8886,6.2669c4.4296-4.75,12.502-7.6609,21.4356-7.6609,8.9247,0,16.9909,2.9047,21.4197,7.6449l10.9019-6.2537-10.4611-6.0413c-.6505-.3753-.8726-1.2072-.4974-1.8568.3753-.6505,1.2081-.8726,1.8568-.4974l12.5065,7.2228c.4213.2434.6806.693.6797,1.1789-.0009.4868-.2611.9355-.6832,1.1771l-13.9207,7.9848c-.5797.3345-1.3187.1947-1.7373-.3283-3.657-4.5632-11.5329-7.5122-20.0647-7.5122-8.5406,0-16.4227,2.9551-20.0815,7.5281-.2655.3328-.6602.5107-1.062.5107Z" style="fill:#6ca5bc; stroke-width:0px;"/><path d="M223.2824,46.0847h-.0009c-.6735-.0009-1.2452-.4939-1.3435-1.1603-.5868-3.9641-5.9138-7.0688-12.1277-7.0688-3.3915,0-4.8482.585-7.0236,1.9843-.423.2708-.9585.2885-1.3966.0443-.4381-.2434-.7063-.708-.6983-1.2098l.146-9.1513c.0053-.3009.1097-.593.2983-.8284,4.2066-5.2483,12.6746-8.5132,22.1126-8.53h.0735c9.4389.0168,17.9069,3.2817,22.1135,8.53.1885.2354.2929.5275.2983.8284l.146,9.1513c.008.5018-.2602.9665-.6983,1.2098-.4381.2443-.9735.2266-1.3966-.0443-2.1754-1.3992-3.6322-1.9843-7.0236-1.9843-6.2112,0-11.5409,3.1056-12.1347,7.0706-.1.6664-.6717,1.1585-1.3444,1.1585ZM209.8103,35.1368c5.9244,0,11.0798,2.4179,13.4747,5.9926,2.3984-3.5747,7.5547-5.9926,13.4765-5.9926,2.8551,0,4.6518.3912,6.3616,1.2019l-.1-6.2926c-3.7676-4.357-11.44-7.1537-19.7381-7.1626-8.2963.0089-15.9687,2.8056-19.7363,7.1626l-.1,6.2926c1.7099-.8107,3.5065-1.2019,6.3616-1.2019Z" style="fill:#6ca5bc; stroke-width:0px;"/><path d="M242.0274,17.8636c-3.087,0-5.4155-2.4418-5.4155-5.6793s2.3285-5.6793,5.4155-5.6793,5.4147,2.4418,5.4147,5.6793-2.3276,5.6793-5.4147,5.6793ZM242.0274,9.2239c-1.8524,0-2.6967,1.5347-2.6967,2.9604s.8443,2.9604,2.6967,2.9604,2.6958-1.5347,2.6958-2.9604-.8434-2.9604-2.6958-2.9604Z" style="fill:#6ca5bc; stroke-width:0px;"/></g></g></svg>